<svg viewBox="0 0 160 19" fill="none" xmlns="http://www.w3.org/2000/svg">
    <circle cx="13.5" cy="9.5" r="2" fill="rgb(8, 126, 164)"></circle>
    <g stroke="rgb(8, 126, 164)" fill="none" transform="translate(13.5,9.5)">
        <ellipse rx="10" ry="4.5"></ellipse>
        <ellipse rx="10" ry="4.5" transform="rotate(60)"></ellipse>
        <ellipse rx="10" ry="4.5" transform="rotate(120)"></ellipse>
    </g>
    <svg viewBox="-40 0 210 16" xmlns="http://www.w3.org/2000/svg">
        <g stroke-linecap="round" fill-rule="nonzero" fill="var(--heading-color)">
            <path d="M 2.08 14.283 L 0 14.283 L 0 0.183 L 5.84 0.183 Q 8.12 0.183 9.36 1.263 Q 10.6 2.343 10.6 4.323 Q 10.6 5.603 10.04 6.523 Q 9.48 7.443 8.41 7.923 Q 7.34 8.403 5.84 8.403 L 6.02 8.123 L 6.54 8.123 Q 7.34 8.123 7.93 8.523 Q 8.52 8.923 9 9.803 L 11.44 14.283 L 9.16 14.283 L 6.72 9.783 Q 6.44 9.263 6.11 8.973 Q 5.78 8.683 5.35 8.573 Q 4.92 8.463 4.34 8.463 L 2.08 8.463 L 2.08 14.283 Z M 2.08 1.843 L 2.08 6.903 L 5.5 6.903 Q 7.02 6.903 7.8 6.263 Q 8.58 5.623 8.58 4.363 Q 8.58 3.123 7.8 2.483 Q 7.02 1.843 5.5 1.843 L 2.08 1.843 Z" id="0"></path>
            <path d="M 21.62 9.183 L 21.62 9.863 L 14.1 9.863 L 14.1 8.623 L 20.26 8.623 L 19.92 8.903 Q 19.92 7.403 19.26 6.583 Q 18.6 5.763 17.36 5.763 Q 16.42 5.763 15.77 6.203 Q 15.12 6.643 14.78 7.423 Q 14.44 8.203 14.44 9.243 L 14.44 9.363 Q 14.44 10.523 14.81 11.313 Q 15.18 12.103 15.9 12.503 Q 16.62 12.903 17.68 12.903 Q 18.52 12.903 19.33 12.633 Q 20.14 12.363 20.86 11.783 L 21.46 13.183 Q 20.8 13.783 19.76 14.123 Q 18.72 14.463 17.66 14.463 Q 16.06 14.463 14.91 13.853 Q 13.76 13.243 13.13 12.113 Q 12.5 10.983 12.5 9.423 Q 12.5 7.903 13.12 6.763 Q 13.74 5.623 14.82 4.983 Q 15.9 4.343 17.28 4.343 Q 18.64 4.343 19.61 4.933 Q 20.58 5.523 21.1 6.603 Q 21.62 7.683 21.62 9.183 Z" id="1"></path>
            <path d="M 29.18 8.563 L 30.12 8.563 L 30.12 9.803 L 29.2 9.803 Q 28.12 9.803 27.38 9.883 Q 26.64 9.963 26.2 10.133 Q 25.76 10.303 25.57 10.603 Q 25.38 10.903 25.38 11.323 Q 25.38 12.083 25.9 12.553 Q 26.42 13.023 27.34 13.023 Q 28.08 13.023 28.64 12.673 Q 29.2 12.323 29.53 11.723 Q 29.86 11.123 29.86 10.343 L 29.86 8.043 Q 29.86 6.903 29.38 6.403 Q 28.9 5.903 27.8 5.903 Q 26.96 5.903 26.12 6.153 Q 25.28 6.403 24.4 6.943 L 23.78 5.523 Q 24.3 5.163 24.98 4.903 Q 25.66 4.643 26.41 4.493 Q 27.16 4.343 27.86 4.343 Q 29.2 4.343 30.07 4.763 Q 30.94 5.183 31.36 6.043 Q 31.78 6.903 31.78 8.263 L 31.78 14.283 L 29.88 14.283 L 29.88 12.103 L 30.06 12.103 Q 29.9 12.843 29.47 13.373 Q 29.04 13.903 28.4 14.183 Q 27.76 14.463 26.94 14.463 Q 25.92 14.463 25.11 14.063 Q 24.3 13.663 23.84 12.983 Q 23.38 12.303 23.38 11.443 Q 23.38 10.363 23.93 9.733 Q 24.48 9.103 25.75 8.833 Q 27.02 8.563 29.18 8.563 Z" id="2"></path>
            <path d="M 42.16 5.543 Q 41.58 4.963 40.68 4.653 Q 39.78 4.343 38.86 4.343 Q 37.36 4.343 36.27 4.953 Q 35.18 5.563 34.58 6.683 Q 33.98 7.803 33.98 9.343 Q 33.98 10.903 34.58 12.053 Q 35.18 13.203 36.27 13.833 Q 37.36 14.463 38.86 14.463 Q 39.76 14.463 40.67 14.143 Q 41.58 13.823 42.16 13.283 L 41.52 11.843 Q 40.98 12.363 40.3 12.613 A 3.717 3.717 0 0 1 39.02 12.863 Q 37.6 12.863 36.83 11.933 Q 36.06 11.003 36.06 9.363 Q 36.06 7.723 36.83 6.833 Q 37.6 5.943 39.02 5.943 Q 39.62 5.943 40.3 6.193 Q 40.98 6.443 41.52 6.963 L 42.16 5.543 Z" id="3"></path>
            <path d="M 44.44 10.803 L 44.44 6.083 L 42.54 6.083 L 42.54 4.523 L 44.44 4.523 L 44.44 1.583 L 46.46 1.583 L 46.46 4.523 L 49.48 4.523 L 49.48 6.083 L 46.46 6.083 L 46.46 10.643 Q 46.46 11.703 46.91 12.243 Q 47.36 12.783 48.38 12.783 Q 48.68 12.783 48.99 12.703 Q 49.3 12.623 49.6 12.543 L 49.92 14.063 Q 49.62 14.243 49.09 14.353 Q 48.56 14.463 48.08 14.463 Q 46.26 14.463 45.35 13.523 Q 44.44 12.583 44.44 10.803 Z" id="4"></path>
            <path d="M 67.8 1.743 L 67.08 3.403 Q 66.16 2.583 65.19 2.213 Q 64.22 1.843 63.08 1.843 Q 60.8 1.843 59.6 3.243 Q 58.4 4.643 58.4 7.223 Q 58.4 9.803 59.6 11.213 Q 60.8 12.623 63.08 12.623 Q 64.22 12.623 65.19 12.253 Q 66.16 11.883 67.08 11.063 L 67.8 12.723 Q 66.96 13.563 65.71 14.013 Q 64.46 14.463 63.02 14.463 Q 60.88 14.463 59.36 13.583 Q 57.84 12.703 57.03 11.073 Q 56.22 9.443 56.22 7.223 Q 56.22 5.003 57.03 3.383 Q 57.84 1.763 59.36 0.883 Q 60.88 0.003 63.02 0.003 Q 64.46 0.003 65.71 0.453 Q 66.96 0.903 67.8 1.743 Z" id="6"></path>
            <path d="M 73.54 14.463 Q 72.06 14.463 70.99 13.843 Q 69.92 13.223 69.32 12.083 Q 68.72 10.943 68.72 9.403 Q 68.72 7.843 69.32 6.713 Q 69.92 5.583 70.99 4.963 Q 72.06 4.343 73.54 4.343 Q 75 4.343 76.07 4.963 Q 77.14 5.583 77.74 6.723 Q 78.34 7.863 78.34 9.403 Q 78.34 10.943 77.74 12.083 Q 77.14 13.223 76.07 13.843 Q 75 14.463 73.54 14.463 Z M 73.52 12.903 Q 74.78 12.903 75.54 12.003 Q 76.3 11.103 76.3 9.403 Q 76.3 7.683 75.54 6.803 Q 74.78 5.923 73.52 5.923 Q 72.28 5.923 71.52 6.803 Q 70.76 7.683 70.76 9.403 Q 70.76 11.103 71.52 12.003 Q 72.28 12.903 73.52 12.903 Z" id="7"></path>
            <path d="M 80.6 10.923 L 80.6 0.183 L 82.62 0.183 L 82.62 10.803 Q 82.62 11.443 82.8 11.893 Q 82.98 12.343 83.34 12.563 Q 83.7 12.783 84.24 12.783 Q 84.48 12.783 84.7 12.763 Q 84.92 12.743 85.12 12.683 L 85.08 14.303 Q 84.74 14.383 84.42 14.423 Q 84.1 14.463 83.78 14.463 Q 82.18 14.463 81.39 13.553 Q 80.6 12.643 80.6 10.923 Z" id="8"></path>
            <path d="M 90.86 14.463 Q 89.38 14.463 88.31 13.843 Q 87.24 13.223 86.64 12.083 Q 86.04 10.943 86.04 9.403 Q 86.04 7.843 86.64 6.713 Q 87.24 5.583 88.31 4.963 Q 89.38 4.343 90.86 4.343 Q 92.32 4.343 93.39 4.963 Q 94.46 5.583 95.06 6.723 Q 95.66 7.863 95.66 9.403 Q 95.66 10.943 95.06 12.083 Q 94.46 13.223 93.39 13.843 Q 92.32 14.463 90.86 14.463 Z M 90.84 12.903 Q 92.1 12.903 92.86 12.003 Q 93.62 11.103 93.62 9.403 Q 93.62 7.683 92.86 6.803 Q 92.1 5.923 90.84 5.923 Q 89.6 5.923 88.84 6.803 Q 88.08 7.683 88.08 9.403 Q 88.08 11.103 88.84 12.003 Q 89.6 12.903 90.84 12.903 Z" id="9"></path>
            <path d="M 99.96 14.283 L 97.92 14.283 L 97.92 4.523 L 99.88 4.523 L 99.88 6.863 L 99.68 6.863 Q 100 5.663 100.83 5.043 Q 101.66 4.423 103.04 4.323 L 103.7 4.283 L 103.84 6.003 L 102.62 6.123 Q 101.32 6.243 100.64 6.943 Q 99.96 7.643 99.96 8.863 L 99.96 14.283 Z" id="10"></path>
            <path d="M 112.94 14.283 L 110.86 14.283 L 110.86 0.183 L 116.7 0.183 Q 118.24 0.183 119.3 0.693 Q 120.36 1.203 120.91 2.163 Q 121.46 3.123 121.46 4.483 Q 121.46 5.843 120.91 6.813 Q 120.36 7.783 119.3 8.293 Q 118.24 8.803 116.7 8.803 L 112.94 8.803 L 112.94 14.283 Z M 112.94 1.843 L 112.94 7.143 L 116.4 7.143 Q 117.9 7.143 118.67 6.473 Q 119.44 5.803 119.44 4.483 Q 119.44 3.183 118.67 2.513 Q 117.9 1.843 116.4 1.843 L 112.94 1.843 Z" id="12"></path>
            <path d="M 125.5 14.283 L 123.48 14.283 L 123.48 4.523 L 125.5 4.523 L 125.5 14.283 Z M 125.66 2.263 L 123.3 2.263 L 123.3 0.163 L 125.66 0.163 L 125.66 2.263 Z" id="13"></path>
            <path d="M 135.94 5.543 Q 135.36 4.963 134.46 4.653 Q 133.56 4.343 132.64 4.343 Q 131.14 4.343 130.05 4.953 Q 128.96 5.563 128.36 6.683 Q 127.76 7.803 127.76 9.343 Q 127.76 10.903 128.36 12.053 Q 128.96 13.203 130.05 13.833 Q 131.14 14.463 132.64 14.463 Q 133.54 14.463 134.45 14.143 Q 135.36 13.823 135.94 13.283 L 135.3 11.843 Q 134.76 12.363 134.08 12.613 A 3.717 3.717 0 0 1 132.8 12.863 Q 131.38 12.863 130.61 11.933 Q 129.84 11.003 129.84 9.363 Q 129.84 7.723 130.61 6.833 Q 131.38 5.943 132.8 5.943 Q 133.4 5.943 134.08 6.193 Q 134.76 6.443 135.3 6.963 L 135.94 5.543 Z" id="14"></path>
            <path d="M 139.7 14.283 L 137.68 14.283 L 137.68 0.183 L 139.7 0.183 L 139.7 8.783 L 139.74 8.783 L 143.98 4.523 L 146.48 4.523 L 141.34 9.683 L 141.34 8.743 L 146.84 14.283 L 144.32 14.283 L 139.74 9.823 L 139.7 9.823 L 139.7 14.283 Z" id="15"></path>
            <path d="M 156.32 9.183 L 156.32 9.863 L 148.8 9.863 L 148.8 8.623 L 154.96 8.623 L 154.62 8.903 Q 154.62 7.403 153.96 6.583 Q 153.3 5.763 152.06 5.763 Q 151.12 5.763 150.47 6.203 Q 149.82 6.643 149.48 7.423 Q 149.14 8.203 149.14 9.243 L 149.14 9.363 Q 149.14 10.523 149.51 11.313 Q 149.88 12.103 150.6 12.503 Q 151.32 12.903 152.38 12.903 Q 153.22 12.903 154.03 12.633 Q 154.84 12.363 155.56 11.783 L 156.16 13.183 Q 155.5 13.783 154.46 14.123 Q 153.42 14.463 152.36 14.463 Q 150.76 14.463 149.61 13.853 Q 148.46 13.243 147.83 12.113 Q 147.2 10.983 147.2 9.423 Q 147.2 7.903 147.82 6.763 Q 148.44 5.623 149.52 4.983 Q 150.6 4.343 151.98 4.343 Q 153.34 4.343 154.31 4.933 Q 155.28 5.523 155.8 6.603 Q 156.32 7.683 156.32 9.183 Z" id="16"></path>
            <path d="M 160.56 14.283 L 158.52 14.283 L 158.52 4.523 L 160.48 4.523 L 160.48 6.863 L 160.28 6.863 Q 160.6 5.663 161.43 5.043 Q 162.26 4.423 163.64 4.323 L 164.3 4.283 L 164.44 6.003 L 163.22 6.123 Q 161.92 6.243 161.24 6.943 Q 160.56 7.643 160.56 8.863 L 160.56 14.283 Z" id="17"></path>
        </g>
    </svg>
</svg>